<svg width="20" height="20" viewBox="0 0 20 20" fill="none" xmlns="http://www.w3.org/2000/svg">
<path fill-rule="evenodd" clip-rule="evenodd" d="M9.78283 1.6665C14.2578 1.6665 17.8978 5.3065 17.8978 9.7815C17.8978 11.8928 17.0876 13.8184 15.7617 15.2636L18.3707 17.8671C18.6148 18.1113 18.6157 18.5063 18.3715 18.7504C18.2498 18.8738 18.089 18.9346 17.929 18.9346C17.7698 18.9346 17.6098 18.8738 17.4873 18.7521L14.8469 16.119C13.4579 17.2314 11.6967 17.8973 9.78283 17.8973C5.30783 17.8973 1.66699 14.2565 1.66699 9.7815C1.66699 5.3065 5.30783 1.6665 9.78283 1.6665ZM9.78283 2.9165C5.99699 2.9165 2.91699 5.99567 2.91699 9.7815C2.91699 13.5673 5.99699 16.6473 9.78283 16.6473C13.5678 16.6473 16.6478 13.5673 16.6478 9.7815C16.6478 5.99567 13.5678 2.9165 9.78283 2.9165Z" fill="#9393C1"/>
</svg>
