<svg width="48" height="48" viewBox="0 0 48 48" fill="none" xmlns="http://www.w3.org/2000/svg">
<path d="M28.3 21.9798L31.593 19.2848C32.409 18.6168 33.633 19.1988 33.632 20.2518L33.62 27.6008C33.619 28.6538 32.394 29.2308 31.58 28.5628L28.3 25.8678" stroke="#128C7E" stroke-width="1.5" stroke-linecap="round" stroke-linejoin="round"/>
<path fill-rule="evenodd" clip-rule="evenodd" d="M28.2969 27.5383C28.3777 29.3704 26.8991 30.9196 24.9946 30.9975C24.8543 31.0034 18.0153 30.9896 18.0153 30.9896C16.1199 31.1335 14.4611 29.7715 14.3116 27.9463C14.3004 27.8103 14.3034 20.4722 14.3034 20.4722C14.2195 18.6382 15.696 17.085 17.6016 17.0042C17.7439 16.9973 24.5737 17.0101 24.5737 17.0101C26.4783 16.8682 28.1422 18.24 28.2897 20.074C28.2999 20.2061 28.2969 27.5383 28.2969 27.5383Z" stroke="#130F26" stroke-width="1.5" stroke-linecap="round" stroke-linejoin="round"/>
</svg>
