<?xml version="1.0" encoding="UTF-8"?>
<svg version="1.1" xmlns="http://www.w3.org/2000/svg" width="512" height="512">
<path d="M0 0 C0.95762194 -0.00384115 1.91524389 -0.00768229 2.90188468 -0.01163983 C4.46796314 -0.01034011 4.46796314 -0.01034011 6.06567955 -0.00901413 C7.1810838 -0.01198525 8.29648804 -0.01495637 9.44569242 -0.01801753 C13.19104848 -0.02670354 16.93637256 -0.02821271 20.6817379 -0.02970505 C23.36410231 -0.03433332 26.04646381 -0.03933748 28.72882652 -0.04475021 C36.02242318 -0.05832092 43.31601434 -0.06435646 50.60962152 -0.06876087 C55.16650223 -0.07152577 59.72338081 -0.07576361 64.28026009 -0.08026505 C76.90435274 -0.09245671 89.5284437 -0.10275581 102.15254211 -0.10614014 C103.36406616 -0.10646949 103.36406616 -0.10646949 104.60006543 -0.10680549 C105.81444323 -0.10713291 105.81444323 -0.10713291 107.05335391 -0.10746694 C108.69380482 -0.1079104 110.33425574 -0.10835696 111.97470665 -0.10880661 C112.78842217 -0.10902804 113.6021377 -0.10924947 114.44051127 -0.10947761 C127.61803521 -0.11342346 140.79550377 -0.13087142 153.97300632 -0.15416613 C167.5118985 -0.17790586 181.05076294 -0.1903432 194.58967626 -0.19150805 C202.18729505 -0.19242341 209.7848417 -0.19814041 217.38244057 -0.21632767 C223.85362067 -0.23176417 230.32470635 -0.23682831 236.79590137 -0.22858956 C240.09451435 -0.22469538 243.3928986 -0.2271999 246.6914959 -0.23964691 C250.27618413 -0.25237764 253.86038885 -0.24648288 257.44507408 -0.23606491 C258.99107605 -0.24814952 258.99107605 -0.24814952 260.56831038 -0.26047826 C276.06071386 -0.15558168 289.51455661 5.7127911 300.65976524 16.42439651 C309.10591402 25.65654336 315.26998506 37.55794513 315.25658226 50.25040054 C315.25864426 51.76263702 315.25864426 51.76263702 315.26074791 53.30542374 C315.25715263 54.40018524 315.25355736 55.49494675 315.24985313 56.62288284 C315.24999916 57.78428787 315.25014519 58.9456929 315.25029564 60.14229202 C315.24959935 63.9785334 315.24182017 67.81472613 315.23398399 71.65095901 C315.23211881 74.31182309 315.23064618 76.97268448 315.22969627 79.63354874 C315.22659113 85.91972479 315.21838876 92.2058834 315.20834678 98.49205178 C315.19716027 105.65043298 315.1916688 112.80881502 315.18665135 119.96720278 C315.17620546 134.68862002 315.15862184 149.41002359 315.13632774 164.13142776 C315.91147728 164.12698654 316.68662682 164.12254532 317.48526573 164.11796951 C324.83959233 164.07766612 332.19386433 164.04732926 339.54827309 164.02780342 C343.32799863 164.01742711 347.10763186 164.00338241 350.88730431 163.98054886 C354.54426272 163.95859836 358.20113311 163.94681306 361.85815239 163.94167328 C363.24379166 163.93801691 364.62942687 163.93087881 366.015028 163.91996765 C382.99050563 163.79177536 398.6576028 165.94845668 411.39804649 178.19783401 C417.6213125 185.1203434 421.48860951 192.22029006 424.13632774 201.13142776 C424.31327769 201.70141778 424.49022764 202.27140779 424.67253971 202.85867023 C425.29582849 205.9130489 425.27262776 208.82290884 425.28349876 211.94086075 C425.28717545 212.62522644 425.29085214 213.30959213 425.29464024 214.01469618 C425.30565109 216.30743922 425.30951657 218.60013689 425.3133297 220.89290237 C425.31959657 222.53740456 425.32624357 224.18190534 425.33324242 225.82640457 C425.3542677 231.22885022 425.36464693 236.63129609 425.37460899 242.03377151 C425.37865785 243.89701286 425.38277481 245.76025406 425.38695908 247.6234951 C425.40601147 256.38272514 425.42023948 265.14194678 425.42857105 273.90119356 C425.43832834 283.99152313 425.46460818 294.08163245 425.50507194 304.17188448 C425.53531249 311.98272122 425.55004763 319.79349514 425.55335206 327.60438925 C425.5556945 332.263388 425.56454874 336.92215149 425.58981323 341.58108711 C425.61323671 345.97162432 425.61727037 350.36177379 425.60705185 354.75235748 C425.60655974 356.35463316 425.61278305 357.95692886 425.62660789 359.55914497 C425.7586822 375.78785641 422.27550397 389.56376728 411.13632774 401.81892776 C400.75141074 411.72940694 387.66161079 415.52144038 373.63632774 415.25642776 C372.71851524 415.24740433 371.80070274 415.23838089 370.85507774 415.22908401 C368.61521219 415.20575208 366.37591591 415.17302012 364.13632774 415.13142776 C364.14521019 415.71723114 364.15409264 416.30303452 364.16324425 416.90658951 C364.25197396 423.022533 364.31216806 429.13829261 364.35605431 435.25471878 C364.37612695 437.53506782 364.40339118 439.81536565 364.43808556 442.09553909 C364.48679383 445.37976619 364.5093406 448.66331068 364.52695274 451.94783401 C364.55792046 453.46855263 364.55792046 453.46855263 364.58951378 455.01999283 C364.59174839 462.1239236 363.45108813 466.51679907 358.53867149 471.87361526 C354.3155002 475.1395344 351.29981168 476.31055799 346.01132774 476.50642776 C345.12187462 476.55541214 344.23242149 476.60439651 343.31601524 476.65486526 C335.35805292 475.34483215 328.88537266 469.62735993 322.76132774 464.69392776 C316.53145987 459.76132524 310.24130724 454.94246191 303.82382774 450.25642776 C296.12498389 444.62685728 288.51701202 438.88791264 280.95541954 433.07527542 C279.34142092 431.83788189 277.71514878 430.61632917 276.07686424 429.41127396 C273.97146946 427.77892684 272.09256535 426.17908801 270.16388512 424.36705399 C259.087028 414.48328186 248.68218933 414.66082644 234.37851524 414.97908401 C232.09940443 414.98734016 229.82026793 414.9901226 227.54114342 414.98773575 C221.57760798 414.99336625 215.61653683 415.06092693 209.65366173 415.14570999 C200.1070616 415.27208934 190.55989461 415.30805175 181.01258278 415.334795 C177.70139578 415.3536686 174.39167389 415.40206529 171.0808773 415.45492935 C156.22517539 415.61655254 144.2549 414.60204427 132.13632774 405.13142776 C131.52273399 404.69185745 130.90914024 404.25228714 130.27695274 403.79939651 C121.06142255 396.72464214 115.3774293 385.02245145 113.5970211 373.70247269 C112.94036771 368.20697791 113.01211694 362.7210062 113.03867149 357.19392776 C113.04079391 355.5129097 113.04079391 355.5129097 113.04295921 353.79793167 C113.04852636 350.24240244 113.06107277 346.68693775 113.07382774 343.13142776 C113.07884699 340.71085576 113.08340915 338.29028277 113.08749962 335.86970901 C113.09848502 329.95692683 113.11519022 324.04418191 113.13632774 318.13142776 C98.30368859 329.02112294 98.30368859 329.02112294 83.63632774 340.13142776 C76.71154933 345.42692316 69.76366352 350.68880799 62.76132774 355.88142776 C61.99498009 356.45377151 61.22863243 357.02611526 60.43906212 357.61580276 C51.65796704 364.09838582 45.44487166 367.56141138 34.13632774 366.13142776 C29.22207613 363.84981094 26.28069218 360.44369899 23.13632774 356.13142776 C21.99907663 352.84295494 22.01540931 349.72125544 22.02280235 346.26131058 C22.02291565 344.48992722 22.02291565 344.48992722 22.02303123 342.68275833 C22.02819252 341.41285049 22.03335381 340.14294266 22.03867149 338.83455276 C22.04008644 337.5306459 22.04150139 336.22673904 22.04295921 334.88331985 C22.04676907 331.42439721 22.05658623 327.96551686 22.06766319 324.50661087 C22.07791028 320.97400357 22.08246389 317.44138941 22.08749962 313.90877151 C22.09820992 306.98297294 22.1152679 300.05720239 22.13632774 293.13142776 C21.37602257 293.14713821 20.61571739 293.16284866 19.83237267 293.17903519 C16.32960249 293.24206431 12.82695225 293.28063229 9.32382774 293.31892776 C7.53041954 293.35663284 7.53041954 293.35663284 5.70078087 293.39509964 C-10.60089606 293.52835585 -24.49417482 288.37259845 -36.32070351 276.95564651 C-49.55888659 262.25333258 -51.47005889 246.23036825 -51.38125038 227.29719925 C-51.38668184 225.33595131 -51.39381021 223.37470747 -51.40249062 221.41347122 C-51.4206039 216.12630262 -51.41370663 210.83944897 -51.40097427 205.55227542 C-51.39078551 199.99703219 -51.40025604 194.44181436 -51.40651894 188.88656998 C-51.4137777 179.56197181 -51.40425359 170.23750074 -51.38515663 160.91292191 C-51.36338499 150.15870401 -51.37044865 139.40478948 -51.39246225 128.65057892 C-51.41065918 119.38729884 -51.41315381 110.12410968 -51.40270758 100.86081749 C-51.39649704 95.34128958 -51.39556964 89.8219039 -51.40885353 84.30238533 C-51.42047429 79.1122504 -51.41227324 73.92250376 -51.3892765 68.73241043 C-51.3840228 66.83666056 -51.38544538 64.94087757 -51.39432716 63.04514122 C-51.47297451 44.54174247 -47.95730809 28.9751082 -34.86367226 15.13142776 C-25.16131273 6.38681188 -13.31529964 0.02013072 0 0 Z " fill="#50C65B" transform="translate(68.86367225646973,17.868572235107422)"/>
<path d="M0 0 C8.13730043 -0.0466227 16.27454377 -0.08201967 24.41194534 -0.10362434 C28.19167088 -0.11400066 31.97130412 -0.12804536 35.75097656 -0.15087891 C39.40793497 -0.1728294 43.06480537 -0.1846147 46.72182465 -0.18975449 C48.10746391 -0.19341085 49.49309912 -0.20054896 50.87870026 -0.21146011 C67.85417788 -0.33965241 83.52127506 1.81702891 96.26171875 14.06640625 C102.48498476 20.98891563 106.35228177 28.08886229 109 37 C109.17694995 37.56999002 109.3538999 38.13998003 109.53621197 38.72724247 C110.15950075 41.78162113 110.13630001 44.69148107 110.14717102 47.80943298 C110.15084771 48.49379868 110.1545244 49.17816437 110.1583125 49.88326842 C110.16932334 52.17601145 110.17318883 54.46870912 110.17700195 56.76147461 C110.18326883 58.4059768 110.18991583 60.05047757 110.19691467 61.69497681 C110.21793996 67.09742246 110.22831919 72.49986833 110.23828125 77.90234375 C110.2423301 79.76558509 110.24644707 81.62882629 110.25063133 83.49206734 C110.26968373 92.25129738 110.28391174 101.01051902 110.2922433 109.76976579 C110.3020006 119.86009536 110.32828044 129.95020468 110.36874419 140.04045671 C110.39898474 147.85129345 110.41371989 155.66206737 110.41702431 163.47296149 C110.41936676 168.13196024 110.42822099 172.79072373 110.45348549 177.44965935 C110.47690896 181.84019656 110.48094262 186.23034602 110.47072411 190.62092972 C110.470232 192.2232054 110.47645531 193.82550109 110.49028015 195.42771721 C110.62235445 211.65642865 107.13917622 225.43233952 96 237.6875 C85.615083 247.59797917 72.52528305 251.39001262 58.5 251.125 C57.5821875 251.11597656 56.664375 251.10695313 55.71875 251.09765625 C53.47888444 251.07432432 51.23958817 251.04159235 49 251 C49.00888245 251.58580338 49.01776489 252.17160675 49.0269165 252.77516174 C49.11564622 258.89110524 49.17584032 265.00686484 49.21972656 271.12329102 C49.2397992 273.40364005 49.26706343 275.68393789 49.30175781 277.96411133 C49.35046609 281.24833842 49.37301286 284.53188292 49.390625 287.81640625 C49.42159271 289.33712486 49.42159271 289.33712486 49.45318604 290.88856506 C49.45542064 297.99249584 48.31476039 302.38537131 43.40234375 307.7421875 C39.17917245 311.00810664 36.16348394 312.17913022 30.875 312.375 C29.98554688 312.42398437 29.09609375 312.47296875 28.1796875 312.5234375 C20.22172517 311.21340439 13.74904491 305.49593216 7.625 300.5625 C1.39513212 295.62989747 -4.8950205 290.81103414 -11.3125 286.125 C-19.01134385 280.49542951 -26.61931573 274.75648488 -34.1809082 268.94384766 C-35.79490682 267.70645413 -37.42117896 266.4849014 -39.0594635 265.27984619 C-41.16485828 263.64749907 -43.0437624 262.04766025 -44.97244263 260.23562622 C-56.04929974 250.35185409 -66.45413842 250.52939867 -80.7578125 250.84765625 C-83.03692331 250.8559124 -85.31605981 250.85869483 -87.59518433 250.85630798 C-93.55871976 250.86193849 -99.51979092 250.92949916 -105.48266602 251.01428223 C-115.02926614 251.14066158 -124.57643313 251.17662399 -134.12374496 251.20336723 C-137.43493197 251.22224083 -140.74465385 251.27063753 -144.05545044 251.32350159 C-158.91115235 251.48512478 -170.88142774 250.47061651 -183 241 C-183.61359375 240.56042969 -184.2271875 240.12085938 -184.859375 239.66796875 C-194.05986248 232.60476265 -199.80785851 220.87527439 -201.52172852 209.5534668 C-202.56937042 200.77647682 -202.42347253 191.87302265 -202.51489258 183.04638672 C-202.5466345 180.68185775 -202.59449272 178.31749031 -202.65844727 175.95361328 C-202.74984584 172.5205589 -202.78851504 169.09033815 -202.81640625 165.65625 C-202.87363609 164.08248596 -202.87363609 164.08248596 -202.93202209 162.47692871 C-202.91698846 156.77719188 -202.31470107 153.65236788 -198.25097656 149.50732422 C-196.86127648 148.30590247 -195.44649416 147.1324024 -194 146 C-193.14043701 145.28666504 -192.28087402 144.57333008 -191.39526367 143.83837891 C-190.66025635 143.30647949 -189.92524902 142.77458008 -189.16796875 142.2265625 C-187.94110352 141.33130859 -187.94110352 141.33130859 -186.68945312 140.41796875 C-185.86380859 139.82628906 -185.03816406 139.23460937 -184.1875 138.625 C-183.34251953 138.01011719 -182.49753906 137.39523437 -181.62695312 136.76171875 C-171.97283287 129.75308816 -171.97283287 129.75308816 -165.25756836 129.69702148 C-164.57279922 129.68855666 -163.88803009 129.68009184 -163.18251038 129.67137051 C-160.90161287 129.64540921 -158.62085294 129.63332085 -156.33984375 129.62109375 C-154.73083077 129.6052556 -153.12182674 129.58848373 -151.51283264 129.5708313 C-148.09443612 129.53495223 -144.67605746 129.50483874 -141.25756836 129.47927856 C-135.94436699 129.43912722 -130.63138787 129.38433824 -125.31835938 129.32592773 C-123.55563356 129.30665428 -121.79290773 129.28738243 -120.03018188 129.26811218 C-119.16240742 129.25859716 -118.29463295 129.24908215 -117.40056229 129.23927879 C-114.78050834 129.21097169 -112.16044488 129.18382423 -109.54037476 129.15705872 C-97.20658685 129.0305233 -84.87370576 128.88401127 -72.54202271 128.61624146 C-70.8736957 128.58097099 -69.20529453 128.54902074 -67.53683472 128.52072144 C-47.47506176 128.17722541 -29.38621506 125.72440523 -14.7109375 110.6484375 C-9.87753661 104.9461106 -6.70940227 98.93871314 -4 92 C-3.5875 90.96875 -3.175 89.9375 -2.75 88.875 C-0.24988172 79.29121328 -0.7834012 69.11305056 -0.68359375 59.27734375 C-0.6629901 57.56384316 -0.64199281 55.85034726 -0.62062073 54.13685608 C-0.56575197 49.65385772 -0.51618934 45.17081621 -0.46777344 40.68774414 C-0.41729937 36.10233781 -0.36174931 31.51699319 -0.30664062 26.93164062 C-0.19949038 17.95447996 -0.0979519 8.97726542 0 0 Z " fill="#59CC5B" transform="translate(384,182)"/>
<path d="M0 0 C60.06 0 120.12 0 182 0 C182 11.88 182 23.76 182 36 C121.94 36 61.88 36 0 36 C0 24.12 0 12.24 0 0 Z " fill="#E1FFEA" transform="translate(110,110)"/>
<path d="M0 0 C30.03 0 60.06 0 91 0 C91 11.88 91 23.76 91 36 C60.97 36 30.94 36 0 36 C0 24.12 0 12.24 0 0 Z " fill="#D1FFDF" transform="translate(110,183)"/>
</svg>
